<mxfile host="app.diagrams.net" agent="Mozilla/5.0 (Windows NT 10.0; Win64; x64) AppleWebKit/537.36 (KHTML, like Gecko) Chrome/131.0.0.0 Safari/537.36 Edg/131.0.0.0" version="24.9.2">
  <diagram name="Страница — 1" id="cmvQJdmaagYAiJTlneyO">
    <mxGraphModel dx="301" dy="463" grid="1" gridSize="10" guides="1" tooltips="1" connect="1" arrows="1" fold="1" page="1" pageScale="1" pageWidth="827" pageHeight="1169" math="0" shadow="0">
      <root>
        <mxCell id="0" />
        <mxCell id="1" parent="0" />
        <mxCell id="ji0xQPcRfm0lryr_6z-F-15" style="edgeStyle=orthogonalEdgeStyle;rounded=0;orthogonalLoop=1;jettySize=auto;html=1;exitX=1;exitY=0;exitDx=0;exitDy=0;entryX=0.5;entryY=0;entryDx=0;entryDy=0;" edge="1" parent="1" source="ji0xQPcRfm0lryr_6z-F-2" target="ji0xQPcRfm0lryr_6z-F-7">
          <mxGeometry relative="1" as="geometry">
            <Array as="points">
              <mxPoint x="474" y="280" />
              <mxPoint x="500" y="280" />
            </Array>
          </mxGeometry>
        </mxCell>
        <mxCell id="ji0xQPcRfm0lryr_6z-F-16" style="edgeStyle=orthogonalEdgeStyle;rounded=0;orthogonalLoop=1;jettySize=auto;html=1;exitX=1;exitY=0.5;exitDx=0;exitDy=0;entryX=0.5;entryY=0;entryDx=0;entryDy=0;" edge="1" parent="1" source="ji0xQPcRfm0lryr_6z-F-2" target="ji0xQPcRfm0lryr_6z-F-5">
          <mxGeometry relative="1" as="geometry" />
        </mxCell>
        <mxCell id="ji0xQPcRfm0lryr_6z-F-17" style="edgeStyle=orthogonalEdgeStyle;rounded=0;orthogonalLoop=1;jettySize=auto;html=1;exitX=0.5;exitY=1;exitDx=0;exitDy=0;entryX=0;entryY=0.5;entryDx=0;entryDy=0;" edge="1" parent="1" source="ji0xQPcRfm0lryr_6z-F-2" target="ji0xQPcRfm0lryr_6z-F-8">
          <mxGeometry relative="1" as="geometry">
            <mxPoint x="250" y="500" as="targetPoint" />
            <Array as="points">
              <mxPoint x="260" y="220" />
              <mxPoint x="260" y="500" />
            </Array>
          </mxGeometry>
        </mxCell>
        <mxCell id="ji0xQPcRfm0lryr_6z-F-2" value="Система учёта труда и заработной платы" style="ellipse;whiteSpace=wrap;html=1;direction=south;" vertex="1" parent="1">
          <mxGeometry x="329" y="160" width="170" height="120" as="geometry" />
        </mxCell>
        <mxCell id="ji0xQPcRfm0lryr_6z-F-3" value="Графики отпусков" style="rounded=0;whiteSpace=wrap;html=1;" vertex="1" parent="1">
          <mxGeometry x="280" y="80" width="120" height="60" as="geometry" />
        </mxCell>
        <mxCell id="ji0xQPcRfm0lryr_6z-F-13" style="edgeStyle=orthogonalEdgeStyle;rounded=0;orthogonalLoop=1;jettySize=auto;html=1;exitX=0.5;exitY=1;exitDx=0;exitDy=0;entryX=0;entryY=0;entryDx=0;entryDy=0;" edge="1" parent="1" source="ji0xQPcRfm0lryr_6z-F-4" target="ji0xQPcRfm0lryr_6z-F-2">
          <mxGeometry relative="1" as="geometry" />
        </mxCell>
        <mxCell id="ji0xQPcRfm0lryr_6z-F-4" value="Табели учёта рабочего времени" style="rounded=0;whiteSpace=wrap;html=1;" vertex="1" parent="1">
          <mxGeometry x="440" y="80" width="120" height="60" as="geometry" />
        </mxCell>
        <mxCell id="ji0xQPcRfm0lryr_6z-F-5" value="Приказы на сотрудников" style="rounded=0;whiteSpace=wrap;html=1;" vertex="1" parent="1">
          <mxGeometry x="354" y="380" width="120" height="60" as="geometry" />
        </mxCell>
        <mxCell id="ji0xQPcRfm0lryr_6z-F-6" value="Расчётные листки" style="rounded=0;whiteSpace=wrap;html=1;" vertex="1" parent="1">
          <mxGeometry x="280" y="300" width="120" height="60" as="geometry" />
        </mxCell>
        <mxCell id="ji0xQPcRfm0lryr_6z-F-7" value="Ведомости на зарплату" style="rounded=0;whiteSpace=wrap;html=1;" vertex="1" parent="1">
          <mxGeometry x="440" y="300" width="120" height="60" as="geometry" />
        </mxCell>
        <mxCell id="ji0xQPcRfm0lryr_6z-F-8" value="Статистический отчёт" style="rounded=0;whiteSpace=wrap;html=1;" vertex="1" parent="1">
          <mxGeometry x="354" y="470" width="120" height="60" as="geometry" />
        </mxCell>
        <mxCell id="ji0xQPcRfm0lryr_6z-F-12" style="edgeStyle=orthogonalEdgeStyle;rounded=0;orthogonalLoop=1;jettySize=auto;html=1;exitX=0.5;exitY=1;exitDx=0;exitDy=0;entryX=0.142;entryY=0.806;entryDx=0;entryDy=0;entryPerimeter=0;" edge="1" parent="1" source="ji0xQPcRfm0lryr_6z-F-3" target="ji0xQPcRfm0lryr_6z-F-2">
          <mxGeometry relative="1" as="geometry" />
        </mxCell>
        <mxCell id="ji0xQPcRfm0lryr_6z-F-14" style="edgeStyle=orthogonalEdgeStyle;rounded=0;orthogonalLoop=1;jettySize=auto;html=1;exitX=1;exitY=1;exitDx=0;exitDy=0;entryX=0.45;entryY=-0.067;entryDx=0;entryDy=0;entryPerimeter=0;" edge="1" parent="1" source="ji0xQPcRfm0lryr_6z-F-2" target="ji0xQPcRfm0lryr_6z-F-6">
          <mxGeometry relative="1" as="geometry" />
        </mxCell>
      </root>
    </mxGraphModel>
  </diagram>
</mxfile>
